#!OML:ASF E:\Steps\Project 1\Capture day 1\Session 2\Subject.ASF
:FULLY-SPECIFIED
:DEGREES
169
root 8.87465 16.2738 31.561 -157.634 -2.22808 176.147
lowerback -25.2958 -2.27253 -8.6444
upperback -1.4636 -0.924277 -1.22712
thorax 12.6282 -1.11813 3.18242
lowerneck -0.0376786 -1.23322 -3.67764
upperneck -15.7248 -1.88598 8.13141
head -4.56068 -1.64165 3.24123
rclavicle -7.00716e-015 -1.90833e-014
rhumerus -33.1563 -19.6208 -79.6017
rradius 26.5433
rwrist 1.36878
rhand -6.74158 -53.7026
rfingers 7.12502
rthumb 19.1193 -82.7828
lclavicle -7.00716e-015 -1.90833e-014
lhumerus -28.1418 10.5202 80.095
lradius 14.6343
lwrist -12.298
lhand -21.3509 -10.9463
lfingers 7.12502
lthumb 5.03554 18.9739
rfemur -20.2751 6.85416 15.4837
rtibia 9.4791
rfoot -20.5648 -8.42082
rtoes -30.8673
lfemur -22.1589 -9.99051 -24.0855
ltibia 12.2375
lfoot -10.0927 0.733155
ltoes -38.0043
170
root 8.8734 16.2733 31.5635 -157.6 -2.24778 176.13
lowerback -25.3063 -2.28668 -8.6597
upperback -1.46214 -0.938776 -1.20811
thorax 12.6381 -1.12633 3.20757
lowerneck 0.0643144 -1.23266 -3.73653
upperneck -15.8978 -1.88959 8.1745
head -4.62921 -1.65243 3.27064
rclavicle -7.85199e-015 -1.07344e-014
rhumerus -33.0775 -19.4894 -79.6314
rradius 26.573
rwrist 1.18758
rhand -6.7618 -53.4331
rfingers 7.12502
rthumb 19.0999 -82.5152
lclavicle -7.85199e-015 -1.07344e-014
lhumerus -28.0126 10.4415 80.2915
lradius 14.6802
lwrist -12.1706
lhand -21.614 -11.1585
lfingers 7.12502
lthumb 4.78154 18.7675
rfemur -20.3401 6.71439 15.4611
rtibia 9.51897
rfoot -20.637 -8.31589
rtoes -30.5123
lfemur -22.229 -10.0398 -24.1038
ltibia 12.2718
lfoot -10.0833 0.778156
ltoes -39.1147
171
root 8.87213 16.2728 31.5628 -157.576 -2.22858 176.15
lowerback -25.3294 -2.29729 -8.67629
upperback -1.47127 -0.950935 -1.16917
thorax 12.6423 -1.13414 3.25713
lowerneck 0.127191 -1.17957 -3.79822
upperneck -15.9558 -1.82129 8.14992
head -4.66158 -1.61587 3.27331
rclavicle -1.03865e-014 -1.43125e-014
rhumerus -33.0337 -19.2238 -79.7173
rradius 26.6922
rwrist 0.928469
rhand -6.91804 -53.5354
rfingers 7.12502
rthumb 18.9496 -82.6323
lclavicle -1.03865e-014 -1.43125e-014
lhumerus -27.9306 9.95557 80.6401
lradius 14.8351
lwrist -11.546
lhand -21.779 -11.0344
lfingers 7.12502
lthumb 4.62217 18.8952
rfemur -20.3771 6.69211 15.4788
rtibia 9.52343
rfoot -20.5766 -8.26388
rtoes -30.716
lfemur -22.2411 -10.0886 -24.0779
ltibia 12.2375
lfoot -10.2005 0.896211
ltoes -39.0173
172
root 8.87372 16.2735 31.5592 -157.64 -2.21241 176.186
lowerback -25.3298 -2.2866 -8.69487
upperback -1.41685 -0.921687 -1.15163
thorax 12.704 -1.12255 3.29788
lowerneck 0.0300201 -1.15626 -3.79824
upperneck -15.9123 -1.79352 8.12475
head -4.63402 -1.59879 3.26211
rclavicle 5.51627e-015 -1.78906e-014
rhumerus -32.9586 -19.1525 -79.7913
rradius 26.829
rwrist 0.902377
rhand -7.01174 -53.5784
rfingers 7.12502
rthumb 18.8595 -82.6841
lclavicle 5.51627e-015 -1.78906e-014
lhumerus -27.6124 10.3853 80.588
lradius 14.5861
lwrist -11.9478
lhand -21.5846 -11.1529
lfingers 7.12502
lthumb 4.80989 18.7725
rfemur -20.2879 6.72183 15.5459
rtibia 9.50014
rfoot -20.4967 -8.22879
rtoes -31.1765
lfemur -22.0964 -10.1635 -24.0305
ltibia 12.1285
lfoot -10.2077 1.03109
ltoes -38.3684
173
root 8.87463 16.2741 31.5591 -157.666 -2.23031 176.169
lowerback -25.3578 -2.29731 -8.72544
upperback -1.34469 -0.909545 -1.16395
thorax 12.8035 -1.12036 3.30405
lowerneck -0.131927 -1.15655 -3.77379
upperneck -15.8723 -1.79915 8.13078
head -4.59427 -1.60334 3.25709
rclavicle 1.88845e-015 -1.55052e-014
rhumerus -32.7719 -19.1335 -79.9096
rradius 26.8781
rwrist 0.932759
rhand -7.11718 -53.4655
rfingers 7.12502
rthumb 18.7581 -82.5811
lclavicle 1.88845e-015 -1.55052e-014
lhumerus -27.1334 12.0604 80.0637
lradius 13.9643
lwrist -13.6427
lhand -21.4419 -11.8463
lfingers 7.12502
lthumb 4.94765 18.0759
rfemur -20.2445 6.88325 15.5129
rtibia 9.49018
rfoot -20.5482 -8.37672
rtoes -30.9285
lfemur -22.0373 -10.3227 -24.0164
ltibia 12.0594
lfoot -10.1595 1.08268
ltoes -37.5932
174
root 8.87384 16.2742 31.5588 -157.629 -2.30656 176.147
lowerback -25.4279 -2.33881 -8.73087
upperback -1.31539 -0.950947 -1.16552
thorax 12.8818 -1.14221 3.28848
lowerneck -0.117517 -1.14964 -3.76251
upperneck -15.9694 -1.79319 8.16654
head -4.62637 -1.61011 3.26904
rclavicle 8.94531e-016 2.78299e-014
rhumerus -32.6156 -19.0935 -80.0032
rradius 26.8828
rwrist 0.946914
rhand -7.05668 -53.22
rfingers 7.12502
rthumb 18.8163 -82.33
lclavicle 8.94531e-016 2.78299e-014
lhumerus -26.9029 12.6807 79.9529
lradius 13.8335
lwrist -14.2752
lhand -21.6451 -12.1122
lfingers 7.12502
lthumb 4.75149 17.8146
rfemur -20.2405 6.88049 15.4862
rtibia 9.44645
rfoot -20.5472 -8.45014
rtoes -30.0844
lfemur -22.0929 -10.4207 -24.0057
ltibia 12.0581
lfoot -10.1343 1.00353
ltoes -37.1838
175
root 8.87501 16.2751 31.5499 -157.711 -2.52472 176.169
lowerback -25.4454 -2.40877 -8.72173
upperback -1.25255 -1.03303 -1.13784
thorax 12.977 -1.18075 3.28409
lowerneck -0.0598775 -1.15044 -3.7554
upperneck -16.0671 -1.79494 8.20072
head -4.66541 -1.6195 3.28199
rclavicle 1.14798e-014 3.57812e-015
rhumerus -32.51 -19.1257 -80.0444
rradius 26.8772
rwrist 1.0324
rhand -6.87407 -52.8124
rfingers 7.12502
rthumb 18.9919 -81.9052
lclavicle 1.14798e-014 3.57812e-015
lhumerus -26.8394 11.9737 80.3443
lradius 14.189
lwrist -13.5214
lhand -21.8406 -11.5704
lfingers 7.12502
lthumb 4.5627 18.3605
rfemur -19.946 6.74823 15.6032
rtibia 9.23335
rfoot -20.4311 -8.49515
rtoes -29.8791
lfemur -21.937 -10.4322 -23.9829
ltibia 12.0035
lfoot -10.1047 0.860096
ltoes -37.6725
176
root 8.87469 16.274 31.5568 -157.686 -2.34768 176.188
lowerback -25.3914 -2.31323 -8.70265
upperback -1.27096 -0.917547 -1.18185
thorax 12.9097 -1.12397 3.26597
lowerneck -0.0771101 -1.1786 -3.74684
upperneck -16.0685 -1.82844 8.25754
head -4.65997 -1.64076 3.29932
rclavicle -5.36719e-015 4.53229e-014
rhumerus -32.4395 -19.1633 -80.124
rradius 26.9198
rwrist 1.03586
rhand -6.77189 -52.7586
rfingers 7.12502
rthumb 19.0902 -81.8418
lclavicle -5.36719e-015 4.53229e-014
lhumerus -26.7824 11.0485 80.7742
lradius 14.5997
lwrist -12.5363
lhand -21.8571 -11.0911
lfingers 7.12502
lthumb 4.54675 18.8401
rfemur -20.1266 6.82271 15.575
rtibia 9.38133
rfoot -20.3814 -8.41471
rtoes -30.3105
lfemur -21.9969 -10.3513 -23.9822
ltibia 12.0262
lfoot -10.1402 0.976278
ltoes -37.7469
177
root 8.87474 16.2747 31.5563 -157.703 -2.34396 176.183
lowerback -25.3787 -2.28873 -8.68625
upperback -1.25143 -0.884796 -1.20993
thorax 12.9211 -1.10719 3.23615
lowerneck -0.100844 -1.20645 -3.72863
upperneck -16.1201 -1.86625 8.31217
head -4.66871 -1.66818 3.31582
rclavicle 1.04362e-015 2.26615e-014
rhumerus -32.3595 -19.2097 -80.2078
rradius 26.9668
rwrist 0.992409
rhand -6.76887 -53.0452
rfingers 7.12502
rthumb 19.0931 -82.128
lclavicle 1.04362e-015 2.26615e-014
lhumerus -26.7384 10.1052 81.1775
lradius 14.9807
lwrist -11.571
lhand -21.7944 -11.4136
lfingers 7.12502
lthumb 4.60729 18.5163
rfemur -20.1118 6.77539 15.5765
rtibia 9.38463
rfoot -20.427 -8.38586
rtoes -30.2938
lfemur -21.9683 -10.4096 -23.9672
ltibia 12.0223
lfoot -10.1629 0.955772
ltoes -37.1548
178
root 8.87505 16.2741 31.5577 -157.66 -2.29698 176.169
lowerback -25.4226 -2.274 -8.7105
upperback -1.24436 -0.852717 -1.22359
thorax 12.9496 -1.09528 3.24494
lowerneck -0.095307 -1.2098 -3.71506
upperneck -16.2059 -1.8734 8.34796
head -4.69503 -1.68085 3.32749
rclavicle 2.5345e-015 2.26615e-014
rhumerus -32.2415 -19.1805 -80.3142
rradius 27.0186
rwrist 0.87404
rhand -6.88056 -53.3809
rfingers 7.12502
rthumb 18.9857 -82.4743
lclavicle 2.5345e-015 2.26615e-014
lhumerus -26.6722 9.55719 81.4912
lradius 15.2353
lwrist -11.1263
lhand -22.0189 -11.7758
lfingers 7.12502
lthumb 4.39056 18.1587
rfemur -20.2081 6.72765 15.5498
rtibia 9.43258
rfoot -20.4991 -8.33406
rtoes -30.1593
lfemur -22.0313 -10.3404 -23.9923
ltibia 12.0389
lfoot -10.1755 0.935642
ltoes -37.1822
